#!OML:ASF X:\für Bonn\!DataBase\2005_08_12_Daniel\c3d\Daniel.ASF
:FULLY-SPECIFIED
:DEGREES
77
root -3.651 9.25146 -1.14213 104.528 -89.1701 -130.195
lowerback 47.3761 -2.5331 2.59628
upperback 3.87289 -3.237 -2.28261
thorax -17.8525 -1.93901 -2.09663
lowerneck 5.6233 2.27633 -1.23021
upperneck -0.20824 2.92798 -0.0829506
head -1.01435 1.45718 0.104903
rclavicle 1.43622e-014 1.74931e-014
rhumerus 73.4868 -12.3845 -158.25
rradius 7.54757
rwrist 123.684
rhand -19.472 10.7781
rfingers 7.12502
rthumb 6.84951 -19.0911
lclavicle 1.43622e-014 1.74931e-014
lhumerus 63.6765 8.32659 108.443
lradius 10.1779
lwrist -82.6818
lhand -17.3343 1.00499
lfingers 7.12502
lthumb 8.91275 30.7967
rfemur -18.6711 -58.4825 -52.7282
rtibia 134.099
rfoot 350.421 60.3663
rtoes -7.81891
lfemur -221.142 131.75 -151.089
ltibia 133.304
lfoot -11.3688 -58.8232
ltoes 9.20785
78
root -3.64751 9.05469 -1.14702 100.592 -89.1847 -126.79
lowerback 48.8747 -2.57322 2.5886
upperback 2.90148 -3.27339 -2.27974
thorax -17.7286 -1.94763 -2.03444
lowerneck 5.79595 2.28792 -1.17908
upperneck -0.324619 2.94296 -0.126383
head -1.0794 1.46575 0.079796
rclavicle -1.72943e-014 -1.19271e-014
rhumerus 73.5687 -12.3936 -158.013
rradius 7.49449
rwrist 123.35
rhand -19.7856 10.7831
rfingers 7.12502
rthumb 6.54677 -19.0957
lclavicle -1.72943e-014 -1.19271e-014
lhumerus 63.7141 8.13178 107.926
lradius 10.1597
lwrist -82.0628
lhand -17.6018 0.957275
lfingers 7.12502
lthumb 8.65465 30.7599
rfemur -13.7009 -59.8601 -60.5975
rtibia 135.656
rfoot 351.013 62.9144
rtoes -7.47666
lfemur -219.653 129.481 -146.982
ltibia 134.772
lfoot -9.48864 -61.243
ltoes 9.83029
79
root -3.64548 8.86518 -1.15169 96.9003 -89.1814 -123.651
lowerback 49.5951 -2.59289 2.61862
upperback 2.92677 -3.29435 -2.2715
thorax -17.8246 -1.96674 -2.01394
lowerneck 5.97282 2.29392 -1.12434
upperneck -0.399773 2.94991 -0.192868
head -1.1318 1.47034 0.0473525
rclavicle -3.27995e-015 -7.55382e-015
rhumerus 73.6362 -12.4675 -157.748
rradius 7.44129
rwrist 123.044
rhand -20.086 10.8149
rfingers 7.12502
rthumb 6.25677 -19.0727
lclavicle -3.27995e-015 -7.55382e-015
lhumerus 63.6305 7.78219 107.021
lradius 10.2007
lwrist -80.9629
lhand -17.8329 1.00938
lfingers 7.12502
lthumb 8.43157 30.8211
rfemur -8.38281 -60.7407 -68.7198
rtibia 137.107
rfoot 351.511 65.3436
rtoes -7.18223
lfemur -217.801 127.368 -142.521
ltibia 136.165
lfoot -7.4351 -63.5942
ltoes 10.4636
80
root -3.64361 8.68669 -1.15562 92.2225 -89.1959 -119.534
lowerback 50.3672 -2.62024 2.64623
upperback 2.92017 -3.32352 -2.26349
thorax -17.9626 -1.98854 -1.98729
lowerneck 6.19272 2.30406 -1.10803
upperneck -0.490288 2.95987 -0.216669
head -1.1981 1.47587 0.0336008
rclavicle 7.45443e-015 2.38542e-014
rhumerus 73.6699 -12.5543 -157.474
rradius 7.4099
rwrist 122.706
rhand -20.3704 10.8398
rfingers 7.12502
rthumb 5.98223 -19.0557
lclavicle 7.45443e-015 2.38542e-014
lhumerus 63.4921 7.48704 106.219
lradius 10.2867
lwrist -79.9988
lhand -18.0783 1.00787
lfingers 7.12502
lthumb 8.19477 30.829
rfemur -3.13391 -61.1198 -76.7081
rtibia 138.468
rfoot 351.468 67.5717
rtoes -6.90513
lfemur -215.783 125.539 -138.05
ltibia 137.453
lfoot -5.47141 -65.7245
ltoes 10.9934
81
root -3.64221 8.5167 -1.16026 88.6691 -89.2213 -116.532
lowerback 51.1179 -2.63447 2.6509
upperback 2.9235 -3.35242 -2.26304
thorax -18.0781 -2.0094 -1.95919
lowerneck 6.43899 2.31592 -1.0714
upperneck -0.636658 2.97282 -0.267542
head -1.28631 1.48376 0.00715295
rclavicle 1.2921e-015 -7.15625e-015
rhumerus 73.6978 -12.6719 -157.197
rradius 7.3805
rwrist 122.311
rhand -20.6765 10.903
rfingers 7.12502
rthumb 5.68669 -19.0007
lclavicle 1.2921e-015 -7.15625e-015
lhumerus 63.3389 7.13943 105.263
lradius 10.3896
lwrist -78.8816
lhand -18.3495 0.991631
lfingers 7.12502
lthumb 7.93302 30.8228
rfemur 1.65597 -61.0876 -84.2031
rtibia 139.767
rfoot 351.599 69.5854
rtoes -6.5692
lfemur -213.524 123.915 -133.406
ltibia 138.671
lfoot -3.47912 -67.7252
ltoes 11.4588
82
root -3.64134 8.34869 -1.16468 85.0387 -89.2313 -113.442
lowerback 51.8469 -2.65855 2.67541
upperback 2.9322 -3.38467 -2.27099
thorax -18.1785 -2.03322 -1.94887
lowerneck 6.65233 2.32386 -0.988231
upperneck -0.767338 2.98452 -0.333431
head -1.36309 1.49115 -0.0312914
rclavicle -3.8763e-015 -2.54444e-014
rhumerus 73.73 -12.7834 -156.937
rradius 7.36812
rwrist 121.916
rhand -20.9394 10.9906
rfingers 7.12502
rthumb 5.43281 -18.9198
lclavicle -3.8763e-015 -2.54444e-014
lhumerus 63.192 6.6669 104.01
lradius 10.469
lwrist -77.432
lhand -18.5959 1.00239
lfingers 7.12502
lthumb 7.69523 30.8424
rfemur 6.01088 -60.7356 -91.2764
rtibia 141.039
rfoot 351.822 71.5098
rtoes -6.23902
lfemur -210.955 122.397 -128.405
ltibia 139.869
lfoot -1.73091 -69.6768
ltoes 11.7865
83
root -3.64045 8.18222 -1.16925 79.4296 -89.2425 -108.342
lowerback 52.5186 -2.68106 2.67573
upperback 2.95181 -3.42173 -2.24401
thorax -18.2477 -2.05688 -1.88597
lowerneck 6.90627 2.34724 -0.995959
upperneck -0.966414 3.00965 -0.377537
head -1.47128 1.50571 -0.0495341
rclavicle -6.55989e-015 2.78299e-015
rhumerus 73.7001 -12.8914 -156.624
rradius 7.37138
rwrist 121.427
rhand -21.2724 11.1278
rfingers 7.12502
rthumb 5.11129 -18.7905
lclavicle -6.55989e-015 2.78299e-015
lhumerus 63.0934 6.31474 103.003
lradius 10.5253
lwrist -76.1984
lhand -18.92 1.02482
lfingers 7.12502
lthumb 7.38241 30.876
rfemur 9.88099 -60.1341 -97.907
rtibia 142.3
rfoot 351.836 73.3569
rtoes -5.887
lfemur -208.338 121.067 -123.33
ltibia 141.044
lfoot 0.417607 -71.5395
ltoes 12.1264
84
root -3.63926 8.02008 -1.17358 74.9523 -89.2342 -104.334
lowerback 53.1121 -2.71105 2.72562
upperback 3.00827 -3.44909 -2.25012
thorax -18.2588 -2.08109 -1.89085
lowerneck 7.09056 2.35044 -0.939584
upperneck -1.16308 3.01514 -0.410892
head -1.56597 1.51015 -0.0737385
rclavicle -2.60408e-014 -1.19271e-015
rhumerus 73.7584 -12.9696 -156.358
rradius 7.34124
rwrist 120.999
rhand -21.6204 11.2119
rfingers 7.12502
rthumb 4.77535 -18.7143
lclavicle -2.60408e-014 -1.19271e-015
lhumerus 63.0328 5.81628 101.781
lradius 10.5383
lwrist -74.7594
lhand -19.3016 1.07156
lfingers 7.12502
lthumb 7.01399 30.9354
rfemur 13.0476 -59.389 -103.78
rtibia 143.526
rfoot 351.855 75.014
rtoes -5.53885
lfemur -205.657 119.911 -118.171
ltibia 142.195
lfoot 2.66077 -73.282
ltoes 12.4254
85
root -3.64125 7.8623 -1.17777 70.915 -89.2254 -100.718
lowerback 53.6013 -2.73702 2.77517
upperback 3.08945 -3.47283 -2.25744
thorax -18.2218 -2.10382 -1.90096
lowerneck 7.25777 2.35751 -0.901712
upperneck -1.36042 3.02472 -0.440965
head -1.65864 1.51667 -0.0938679
rclavicle -2.76311e-014 -1.78906e-014
rhumerus 73.8401 -13.0113 -156.103
rradius 7.23986
rwrist 120.551
rhand -22.0527 11.2821
rfingers 7.12502
rthumb 4.35792 -18.653
lclavicle -2.76311e-014 -1.78906e-014
lhumerus 62.9469 5.28458 100.425
lradius 10.5643
lwrist -73.241
lhand -19.7224 1.10637
lfingers 7.12502
lthumb 6.6078 30.9833
rfemur 15.6693 -58.5382 -109.11
rtibia 144.722
rfoot 351.814 76.573
rtoes -5.17531
lfemur -202.793 118.897 -112.829
ltibia 143.301
lfoot 5.4809 -74.959
ltoes 12.7679
86
root -3.64594 7.71029 -1.18224 65.8031 -89.2084 -95.9952
lowerback 54.0304 -2.7665 2.81201
upperback 3.16646 -3.50108 -2.23985
thorax -18.1776 -2.12647 -1.87525
lowerneck 7.44067 2.37042 -0.902241
upperneck -1.56558 3.03838 -0.469211
head -1.75773 1.52545 -0.107518
rclavicle -4.47266e-015 3.18055e-015
rhumerus 73.9073 -13.0163 -155.827
rradius 7.07552
rwrist 120.132
rhand -22.4582 11.3041
rfingers 7.12502
rthumb 3.96636 -18.6387
lclavicle -4.47266e-015 3.18055e-015
lhumerus 62.829 4.81022 99.1484
lradius 10.5986
lwrist -71.8337
lhand -20.1545 1.164
lfingers 7.12502
lthumb 6.1907 31.0535
rfemur 17.8209 -57.5907 -113.963
rtibia 145.884
rfoot 351.217 78.053
rtoes -4.87071
lfemur -199.97 118.054 -107.548
ltibia 144.381
lfoot 7.94838 -76.5648
ltoes 12.873
